<svg xmlns="http://www.w3.org/2000/svg" xmlns:xlink="http://www.w3.org/1999/xlink"><defs><symbol viewBox="0 0 512 512" id="burger-cheese-solid"><!--! Font Awesome Pro 6.2.0 by @fontawesome - https://fontawesome.com License - https://fontawesome.com/license (Commercial License) Copyright 2022 Fonticons, Inc. --><path d="M32 194.9C32 211 45 224 61.1 224H450.9c16.1 0 29.1-13 29.1-29.1c0-1.9-.2-3.7-.6-5.6C474.1 168.3 433.2 32 256 32S37.9 168.3 32.6 189.3c-.5 1.9-.6 3.7-.6 5.6zM128 144c-8.8 0-16-7.2-16-16s7.2-16 16-16s16 7.2 16 16s-7.2 16-16 16zm272-16c0 8.8-7.2 16-16 16s-16-7.2-16-16s7.2-16 16-16s16 7.2 16 16zM256 112c-8.8 0-16-7.2-16-16s7.2-16 16-16s16 7.2 16 16s-7.2 16-16 16zM32 400v16c0 35.3 28.7 64 64 64H416c35.3 0 64-28.7 64-64V400c0-8.8-7.2-16-16-16H48c-8.8 0-16 7.2-16 16zM234 262.7c-6.5-4.4-14.2-6.7-22.1-6.7H208l-.1 0H64c-26.5 0-48 21.5-48 48s21.5 48 48 48H448c26.5 0 48-21.5 48-48s-21.5-48-48-48H432.1l-.1 0h-3.9c-7.9 0-15.6 2.3-22.1 6.7l-68.2 45.5c-10.7 7.2-24.8 7.2-35.5 0L234 262.7z" /></symbol><symbol viewBox="0 0 512 512" id="cable-car-solid"><path d="M256 32C256 14.33 270.3 0 288 0C305.7 0 320 14.33 320 32C320 49.67 305.7 64 288 64C270.3 64 256 49.67 256 32zM224 56C224 73.67 209.7 88 192 88C174.3 88 160 73.67 160 56C160 38.33 174.3 24 192 24C209.7 24 224 38.33 224 56zM32 288C32 252.7 60.65 224 96 224H232V157.5L28.86 199.5C15.88 202.2 3.183 193.8 .4976 180.9C-2.188 167.9 6.157 155.2 19.14 152.5L483.1 56.5C496.1 53.81 508.8 62.16 511.5 75.14C514.2 88.12 505.8 100.8 492.9 103.5L280 147.5V224H416C451.3 224 480 252.7 480 288V448C480 483.3 451.3 512 416 512H96C60.65 512 32 483.3 32 448V288zM96 288C87.16 288 80 295.2 80 304V368C80 376.8 87.16 384 96 384H160C168.8 384 176 376.8 176 368V304C176 295.2 168.8 288 160 288H96zM208 368C208 376.8 215.2 384 224 384H288C296.8 384 304 376.8 304 368V304C304 295.2 296.8 288 288 288H224C215.2 288 208 295.2 208 304V368zM352 288C343.2 288 336 295.2 336 304V368C336 376.8 343.2 384 352 384H416C424.8 384 432 376.8 432 368V304C432 295.2 424.8 288 416 288H352z" /></symbol><symbol viewBox="0 0 512 512" id="circle-arrow-right-light"><!--! Font Awesome Pro 6.1.2 by @fontawesome - https://fontawesome.com License - https://fontawesome.com/license (Commercial License) Copyright 2022 Fonticons, Inc. --><path d="M283.3 148.7c-6.25-6.25-16.38-6.25-22.62 0s-6.25 16.38 0 22.62L329.4 240H144C135.2 240 128 247.2 128 256s7.156 16 16 16h185.4l-68.69 68.69c-6.25 6.25-6.25 16.38 0 22.62s16.38 6.25 22.62 0l96-96C382.4 264.2 384 260.1 384 256s-1.562-8.188-4.688-11.31L283.3 148.7zM256 0C114.6 0 0 114.6 0 256s114.6 256 256 256s256-114.6 256-256S397.4 0 256 0zM256 480c-123.5 0-224-100.5-224-224s100.5-224 224-224s224 100.5 224 224S379.5 480 256 480z" /></symbol><symbol viewBox="0 0 512 512" id="crab-solid"><path d="M417.5 251.7C421.7 258.1 425.5 264.9 428.5 272h31.72l28.62-14.31c7.938-3.922 17.5-.7656 21.47 7.156c3.938 7.906 .75 17.52-7.156 21.47l-32 16C468.9 303.4 466.5 304 464 304h-27.07c.9277 6.297 1.928 12.58 1.928 19.14c0 2.91-.9961 5.617-1.668 8.4l15.88 5.291c2.344 .7813 4.5 2.109 6.25 3.859l32 32c6.25 6.25 6.25 16.38 0 22.62C488.2 398.4 484.1 400 480 400s-8.188-1.562-11.31-4.688l-29.34-29.33l-21.14-7.049l-30.71 30.71l33.56 11.19c2.344 .7813 4.5 2.109 6.25 3.859l32 32c6.25 6.25 6.25 16.38 0 22.62C456.2 462.4 452.1 464 448 464s-8.188-1.562-11.31-4.688l-29.34-29.33l-45.13-15.05l-16.84 16.84l30.85 18.51C381.1 453.2 384 458.4 384 464v32c0 8.844-7.156 16-16 16S352 504.8 352 496v-22.94L310.2 448H201.8L160 473.1V496C160 504.8 152.8 512 144 512S128 504.8 128 496v-32c0-5.625 2.938-10.83 7.781-13.72l30.85-18.51l-16.84-16.84l-45.14 15.05l-29.34 29.33C72.19 462.4 68.09 464 64 464s-8.188-1.562-11.31-4.688c-6.25-6.25-6.25-16.38 0-22.62l32-32c1.75-1.75 3.906-3.078 6.25-3.859l33.56-11.19l-30.71-30.71l-21.14 7.049l-29.34 29.33C40.19 398.4 36.09 400 32 400s-8.188-1.562-11.31-4.688c-6.25-6.25-6.25-16.38 0-22.62l32-32c1.75-1.75 3.906-3.078 6.25-3.859l15.88-5.291c-.6719-2.783-1.649-5.49-1.649-8.4c0-6.555 .9807-12.84 1.908-19.14H48c-2.469 0-4.938-.5781-7.156-1.688l-32-16C.9375 282.4-2.25 272.8 1.688 264.8c3.969-7.922 13.56-11.05 21.47-7.156L51.78 272H83.5c3.027-7.143 6.825-13.86 11.02-20.29L13.79 213.7C5.379 209.8 .0039 201.3 .0039 192V128c0-70.69 57.3-128 127.1-128h63.1l-63.1 64h63.1c0 35.35-28.65 64-63.1 64h-79.1v48.77l81.87 38.53C147.8 202.9 169.1 195.3 192 193.2L192 144C192 135.2 199.2 128 208 128S224 135.2 224 144L224.1 192H288V144C288 135.2 295.2 128 304 128S320 135.2 320 144l-.001 49.17c22.89 2.162 44.19 9.723 62.13 22.13l81.87-38.53V128h-79.1C348.7 128 319.1 99.35 319.1 64h63.1l-63.1-64h63.1c70.69 0 127.1 57.31 127.1 128v64c0 9.297-5.375 17.75-13.78 21.72L417.5 251.7z" /></symbol><symbol viewBox="0 0 264 512" id="facebook"><path d="M76.7 512V283H0v-91h76.7v-71.7C76.7 42.4 124.3 0 193.8 0c33.3 0 61.9 2.5 70.2 3.6V85h-48.2c-37.8 0-45.1 18-45.1 44.3V192H256l-11.7 91h-73.6v229" /></symbol><symbol viewBox="0 0 448 512" id="instagram"><path d="M224.1 141c-63.6 0-114.9 51.3-114.9 114.9s51.3 114.9 114.9 114.9S339 319.5 339 255.9 287.7 141 224.1 141zm0 189.6c-41.1 0-74.7-33.5-74.7-74.7s33.5-74.7 74.7-74.7 74.7 33.5 74.7 74.7-33.6 74.7-74.7 74.7zm146.4-194.3c0 14.9-12 26.8-26.8 26.8-14.9 0-26.8-12-26.8-26.8s12-26.8 26.8-26.8 26.8 12 26.8 26.8zm76.1 27.2c-1.7-35.9-9.9-67.7-36.2-93.9-26.2-26.2-58-34.4-93.9-36.2-37-2.1-147.9-2.1-184.9 0-35.8 1.7-67.6 9.9-93.9 36.1s-34.4 58-36.2 93.9c-2.1 37-2.1 147.9 0 184.9 1.7 35.9 9.9 67.7 36.2 93.9s58 34.4 93.9 36.2c37 2.1 147.9 2.1 184.9 0 35.9-1.7 67.7-9.9 93.9-36.2 26.2-26.2 34.4-58 36.2-93.9 2.1-37 2.1-147.8 0-184.8zM398.8 388c-7.8 19.6-22.9 34.7-42.6 42.6-29.5 11.7-99.5 9-132.1 9s-102.7 2.6-132.1-9c-19.6-7.8-34.7-22.9-42.6-42.6-11.7-29.5-9-99.5-9-132.1s-2.6-102.7 9-132.1c7.8-19.6 22.9-34.7 42.6-42.6 29.5-11.7 99.5-9 132.1-9s102.7-2.6 132.1 9c19.6 7.8 34.7 22.9 42.6 42.6 11.7 29.5 9 99.5 9 132.1s2.7 102.7-9 132.1z" /></symbol><symbol viewBox="0 0 32 32" id="menu"><path d="M2 6h28v6H2zm0 8h28v6H2zm0 8h28v6H2z" /></symbol><symbol viewBox="0 0 26 28" id="twitter"><path d="M25.312 6.375a10.85 10.85 0 01-2.531 2.609c.016.219.016.438.016.656 0 6.672-5.078 14.359-14.359 14.359-2.859 0-5.516-.828-7.75-2.266.406.047.797.063 1.219.063 2.359 0 4.531-.797 6.266-2.156a5.056 5.056 0 01-4.719-3.5c.313.047.625.078.953.078.453 0 .906-.063 1.328-.172a5.048 5.048 0 01-4.047-4.953v-.063a5.093 5.093 0 002.281.641 5.044 5.044 0 01-2.25-4.203c0-.938.25-1.797.688-2.547a14.344 14.344 0 0010.406 5.281 5.708 5.708 0 01-.125-1.156 5.045 5.045 0 015.047-5.047 5.03 5.03 0 013.687 1.594 9.943 9.943 0 003.203-1.219 5.032 5.032 0 01-2.219 2.781c1.016-.109 2-.391 2.906-.781z" /></symbol></defs></svg>